<?xml version="1.0" standalone="no"?>
<!DOCTYPE svg PUBLIC "-//W3C//DTD SVG 20010904//EN"
 "http://www.w3.org/TR/2001/REC-SVG-20010904/DTD/svg10.dtd">
<svg version="1.0" xmlns="http://www.w3.org/2000/svg"
 width="409.000000pt" height="409.000000pt" viewBox="0 0 409.000000 409.000000"
 preserveAspectRatio="xMidYMid meet">

<g transform="translate(0.000000,409.000000) scale(0.100000,-0.100000)"
fill="#000000" stroke="none">
<path d="M2211 3455 c-16 -14 -33 -35 -36 -46 -6 -19 -7 -19 -32 1 -30 24 -54
25 -92 5 -27 -13 -69 -81 -58 -92 3 -3 22 1 42 8 42 16 59 8 93 -41 35 -52 30
-66 -25 -74 -27 -3 -65 -16 -85 -29 -39 -23 -88 -81 -88 -104 0 -7 -4 -13 -10
-13 -5 0 -10 4 -10 10 0 19 -75 93 -107 107 -18 7 -51 13 -73 13 -39 0 -40 1
-34 28 20 84 62 108 137 77 31 -13 20 34 -17 71 -38 38 -77 44 -116 17 -16
-11 -25 -13 -28 -5 -9 28 -45 62 -77 72 -30 10 -41 9 -73 -7 -49 -26 -72 -84
-51 -128 19 -39 31 -40 54 -2 24 38 47 44 80 23 21 -14 25 -24 25 -65 0 -43
-4 -53 -31 -75 -21 -18 -42 -26 -70 -26 -37 0 -39 2 -39 30 0 39 -30 97 -67
132 -34 32 -149 88 -182 88 -23 0 -23 -1 -16 -72 13 -127 52 -201 125 -238 37
-19 39 -22 29 -48 -6 -15 -20 -37 -31 -49 -44 -47 -158 -17 -158 41 0 28 29
56 58 56 34 0 38 21 8 47 -61 52 -166 10 -166 -67 0 -34 20 -79 45 -100 14
-11 12 -15 -13 -30 -49 -30 -46 -110 4 -149 31 -25 46 -19 38 14 -14 55 22 85
101 85 44 0 44 -1 35 -26 -15 -38 -12 -112 5 -149 9 -17 29 -46 46 -63 l30
-30 -33 -7 c-77 -16 -158 -93 -158 -149 0 -26 -26 -19 -64 18 -42 39 -47 78
-14 113 17 18 19 26 10 35 -10 10 -22 9 -55 -2 -51 -18 -84 -71 -68 -112 9
-23 6 -26 -40 -46 -80 -33 -99 -109 -43 -166 31 -30 65 -39 100 -26 l27 11
-26 27 c-31 32 -33 49 -11 80 10 14 25 22 45 22 73 0 120 -59 103 -128 l-9
-37 -62 3 c-49 3 -73 -1 -107 -18 -47 -22 -156 -131 -156 -155 0 -21 93 -45
172 -45 73 0 126 19 162 59 25 28 37 27 69 -7 55 -57 22 -162 -51 -162 -39 0
-52 17 -52 67 0 47 -1 48 -33 32 -64 -33 -77 -111 -27 -161 27 -27 36 -29 78
-26 26 3 55 8 65 12 13 6 17 4 17 -11 0 -25 34 -61 66 -69 14 -4 42 0 62 8 42
16 57 48 22 48 -56 0 -80 47 -60 119 6 23 12 41 14 41 2 0 24 -11 47 -25 56
-32 137 -34 194 -5 22 11 40 20 40 20 0 0 -1 -17 -3 -38 -6 -66 15 -123 64
-168 41 -38 43 -42 26 -56 -29 -26 -59 -38 -92 -38 -25 0 -35 7 -52 36 -20 34
-22 35 -35 18 -17 -24 -17 -68 2 -103 16 -32 33 -41 77 -41 28 0 30 -2 24 -26
-9 -36 10 -90 41 -114 63 -49 163 0 163 81 0 18 -4 20 -22 14 -59 -18 -75 -17
-92 6 -24 35 -20 57 18 95 39 39 80 45 127 17 33 -20 35 -25 13 -58 -26 -40
-29 -122 -5 -185 22 -58 76 -140 92 -140 18 0 80 111 96 173 16 59 16 66 -1
113 -9 27 -19 56 -22 64 -7 20 45 50 84 50 37 0 87 -40 96 -76 10 -38 -17 -74
-54 -74 -16 0 -32 5 -35 10 -12 20 -35 10 -35 -16 0 -36 16 -61 50 -79 42 -22
85 -19 116 8 22 19 28 34 32 80 4 56 5 57 36 57 49 0 81 39 80 96 -1 60 -18
76 -38 36 -26 -50 -71 -56 -130 -15 l-40 26 36 31 c59 51 85 127 69 196 l-8
36 60 -20 c51 -17 65 -18 105 -7 25 6 58 21 74 32 l28 21 15 -36 c29 -69 9
-126 -45 -126 -36 0 -45 -13 -22 -33 22 -20 66 -31 97 -23 30 8 65 44 65 67 0
15 4 15 41 2 54 -18 92 -9 124 29 34 41 33 89 -2 127 -16 17 -37 31 -48 33
-18 3 -20 -2 -17 -39 3 -35 0 -44 -22 -58 -30 -20 -54 -14 -87 21 -35 37 -32
94 6 134 16 16 32 30 36 30 4 0 23 -14 41 -30 43 -40 125 -64 186 -55 59 8
142 34 142 44 0 19 -84 112 -127 140 -52 35 -97 46 -154 38 -31 -4 -41 -1 -49
13 -25 47 -3 111 45 135 44 20 71 19 95 -5 27 -27 25 -42 -7 -80 -29 -35 -21
-50 25 -50 89 0 137 113 74 173 -15 15 -42 29 -59 33 -31 6 -32 7 -26 53 5 44
3 49 -27 74 -20 18 -43 27 -65 27 -40 0 -53 -15 -26 -29 46 -25 33 -96 -24
-131 -41 -25 -41 -25 -50 8 -16 64 -86 122 -168 137 l-37 7 29 33 c49 56 63
137 35 208 -5 15 1 17 45 17 42 0 57 -5 77 -25 21 -21 24 -31 18 -60 -3 -19
-3 -35 1 -35 18 0 46 24 60 50 23 45 19 78 -15 110 -27 25 -28 29 -13 41 25
22 45 78 38 110 -9 40 -58 79 -101 79 -38 0 -112 -55 -84 -63 75 -22 75 -22
78 -58 4 -43 -20 -67 -72 -76 -45 -7 -80 15 -104 64 -16 34 -16 36 2 47 64 38
84 57 110 109 23 45 30 74 34 139 l5 81 -29 -7 c-52 -13 -129 -52 -167 -86
-43 -38 -62 -70 -72 -122 -4 -20 -13 -39 -20 -42 -21 -8 -80 12 -99 33 -25 28
-32 86 -13 114 29 44 91 39 103 -8 13 -54 54 -17 54 50 0 83 -102 126 -169 70z
m120 -24 c16 -16 29 -39 29 -50 0 -26 -5 -26 -37 -1 -59 46 -133 4 -133 -77 0
-58 21 -96 64 -117 40 -19 97 -21 114 -4 7 7 12 25 12 42 0 42 42 108 88 139
22 14 43 23 46 20 16 -16 2 -43 -34 -67 -45 -30 -78 -82 -61 -99 7 -7 13 -3
20 14 10 27 58 75 67 67 9 -9 -24 -78 -41 -84 -19 -8 -20 -24 -2 -24 22 0 51
38 68 88 12 35 21 48 39 50 20 3 22 1 16 -25 -18 -69 -83 -153 -120 -153 -32
0 -39 -28 -21 -76 28 -73 108 -105 180 -72 28 13 55 55 55 86 0 24 -37 72 -56
72 -8 0 -14 4 -14 9 0 15 40 20 71 9 74 -26 62 -120 -23 -168 -21 -12 -38 -25
-38 -29 0 -5 -21 -11 -46 -14 -58 -6 -71 -18 -56 -52 31 -68 2 -172 -60 -217
-45 -31 -143 -33 -184 -2 -46 34 -67 70 -72 123 -5 55 -7 56 -64 41 -110 -31
-219 85 -188 200 22 81 88 130 175 130 56 0 61 10 38 81 -21 63 -65 100 -110
91 -28 -5 -28 -5 -9 17 37 41 91 25 106 -30 14 -50 26 -50 34 2 8 48 61 109
96 109 12 0 35 -13 51 -29z m-711 -18 c18 -17 32 -42 36 -63 5 -31 4 -33 -7
-15 -32 52 -94 61 -134 20 l-25 -24 0 30 c0 37 39 79 74 79 14 0 39 -12 56
-27z m980 -18 c0 -23 -24 -45 -49 -45 -18 0 -12 48 7 59 28 17 42 12 42 -14z
m-1307 -7 c26 -20 12 -56 -19 -50 -19 3 -24 11 -24 33 0 31 15 37 43 17z m505
-20 c20 -17 14 -25 -16 -20 -20 3 -38 -4 -60 -23 -31 -26 -32 -26 -32 -5 0 11
11 32 25 46 26 25 52 26 83 2z m-422 -22 c51 -35 83 -83 90 -138 7 -54 27 -66
86 -54 65 13 108 65 108 131 0 22 2 24 14 13 9 -9 11 -20 5 -36 -5 -13 -9 -38
-9 -57 l0 -34 54 0 c66 0 103 -18 141 -67 42 -55 46 -128 12 -187 -36 -61 -81
-81 -163 -74 l-62 6 -7 -47 c-9 -65 -40 -111 -89 -133 -52 -24 -90 -23 -143 0
-80 37 -119 130 -90 216 l16 46 -27 10 c-62 24 -163 -11 -170 -60 -4 -25 -17
-28 -26 -5 -19 50 10 84 71 84 23 0 43 3 43 8 0 4 19 6 43 4 53 -4 103 26 123
73 24 57 19 71 -36 101 -39 21 -55 38 -75 77 -31 62 -32 87 -5 87 21 0 24 -4
34 -53 7 -31 61 -96 71 -85 4 4 -4 22 -18 40 -28 38 -43 78 -29 78 12 0 72
-67 72 -80 0 -6 5 -10 10 -10 33 0 -14 81 -61 105 -20 11 -29 23 -29 40 0 31
3 31 46 1z m-146 -186 c11 -7 9 -11 -12 -19 -53 -20 -65 -94 -23 -136 29 -30
21 -32 -21 -6 -35 22 -68 83 -59 111 14 44 79 73 115 50z m1468 -187 c31 -8
45 -45 30 -80 -11 -26 -12 -27 -15 -6 -5 26 -50 73 -70 73 -8 0 -11 5 -8 10 7
11 29 13 63 3z m-677 -124 c33 -16 55 -20 95 -17 l53 5 11 -46 c20 -81 76
-134 156 -147 l40 -6 -26 -28 c-26 -28 -50 -90 -50 -126 1 -17 14 -57 35 -106
5 -13 3 -18 -9 -18 -23 0 -91 -65 -106 -100 -7 -17 -11 -55 -8 -89 l4 -60 -30
17 c-39 20 -122 20 -161 -1 -17 -8 -40 -26 -53 -39 l-23 -25 -34 32 c-37 36
-110 59 -153 49 -15 -4 -43 -15 -62 -25 l-36 -17 4 34 c2 19 1 50 -2 70 -8 41
-63 106 -105 124 l-29 12 20 34 c41 70 22 164 -45 226 l-31 28 26 0 c80 0 168
86 168 165 0 25 1 26 45 19 82 -12 183 49 201 121 6 25 7 24 35 -19 17 -28 44
-53 70 -67z m819 -209 c33 -33 22 -72 -27 -99 -36 -19 -27 -32 16 -25 104 17
175 -60 120 -130 -25 -32 -66 -37 -49 -7 18 34 12 76 -14 100 -43 41 -127 25
-169 -30 -36 -50 -15 -167 28 -161 91 13 164 -7 208 -56 18 -20 18 -20 -1 -26
-13 -5 -37 4 -68 24 -45 28 -104 40 -104 21 0 -5 15 -12 33 -15 17 -4 43 -15
57 -26 l25 -20 -40 0 c-22 0 -50 7 -62 15 -13 9 -24 11 -28 6 -11 -19 48 -46
100 -46 46 0 74 -14 75 -37 0 -5 -25 -8 -55 -8 -62 0 -104 17 -151 62 -38 36
-59 32 -103 -18 -66 -75 -19 -204 74 -204 43 0 73 25 81 67 6 34 8 35 20 18
23 -31 18 -91 -8 -109 -42 -30 -96 -18 -150 32 -31 28 -46 25 -29 -6 15 -28
14 -77 -1 -90 -14 -11 -41 -15 -73 -12 -15 1 -16 3 -5 7 41 15 60 46 60 97 0
48 -28 116 -47 116 -5 0 -28 -14 -52 -30 -56 -38 -118 -40 -181 -7 -124 65
-115 243 15 292 25 10 45 19 45 20 0 2 -11 23 -25 46 -63 110 0 235 124 247
90 8 170 -49 187 -137 7 -34 21 -38 62 -17 60 31 98 98 81 144 -10 28 4 29 31
2z m-1772 -36 c-9 -25 -8 -37 5 -62 18 -38 4 -43 -30 -10 -30 28 -29 62 4 87
32 26 36 23 21 -15z m409 -10 c51 -38 68 -71 68 -132 0 -43 -6 -65 -22 -89
-30 -41 -29 -50 7 -58 42 -9 96 -63 110 -111 44 -148 -142 -274 -266 -179 -19
15 -42 24 -50 21 -21 -8 -44 -68 -44 -117 0 -33 6 -47 32 -71 l32 -29 -39 3
c-30 2 -43 9 -54 29 -12 23 -12 29 2 59 10 18 17 35 17 37 0 11 -22 -1 -50
-27 -56 -53 -139 -50 -160 6 -12 29 -4 68 16 85 11 9 14 7 14 -13 0 -59 74
-97 126 -64 33 22 64 74 64 109 0 37 -23 80 -56 106 -37 29 -52 27 -91 -14
-36 -37 -84 -55 -150 -55 -31 0 -43 4 -43 14 0 22 20 31 78 33 57 1 111 28 94
45 -7 7 -18 5 -33 -6 -13 -9 -39 -16 -58 -16 -34 0 -34 0 -16 20 10 11 36 23
57 26 45 8 51 24 7 24 -34 0 -64 -13 -96 -42 -14 -14 -28 -18 -43 -13 -30 10
-21 25 35 60 43 27 57 30 121 28 67 -1 72 0 83 23 6 14 11 45 11 70 0 39 -5
51 -34 80 -19 19 -41 34 -50 34 -9 0 -13 6 -10 15 5 12 14 10 50 -11 53 -31
69 -27 78 19 8 44 38 82 84 107 48 26 140 23 179 -6z m-442 -119 c-22 -8 -41
-15 -43 -15 -2 0 -9 -15 -17 -32 -11 -28 -11 -38 0 -65 12 -29 12 -33 -1 -33
-8 0 -26 11 -39 25 -59 58 -8 135 88 135 l52 -1 -40 -14z m1979 -307 c12 -20
8 -27 -23 -30 -30 -4 -53 28 -31 42 20 13 41 9 54 -12z m-2087 -23 c2 -6 -3
-19 -10 -28 -10 -15 -17 -16 -41 -7 -28 10 -28 11 -10 31 18 20 55 23 61 4z
m933 -40 c15 -8 42 -31 58 -51 l29 -35 22 28 c55 69 138 90 211 53 62 -32 85
-73 85 -152 0 -74 -17 -107 -73 -143 -17 -11 -31 -25 -32 -31 0 -18 65 -74
100 -84 38 -11 66 -6 93 18 16 14 17 13 17 -6 0 -27 -33 -62 -59 -62 -11 0
-34 12 -51 26 -40 34 -47 26 -21 -22 30 -56 27 -99 -9 -136 -25 -24 -36 -29
-58 -23 -29 7 -62 32 -62 47 0 5 9 6 21 3 47 -15 99 32 99 88 0 35 -35 82 -74
101 -46 22 -98 13 -140 -24 l-31 -28 24 -47 c25 -50 26 -120 2 -179 -11 -27
-13 -28 -28 -13 -14 14 -15 21 -4 54 14 43 11 115 -5 120 -6 2 -10 -17 -10
-51 1 -54 -7 -76 -21 -62 -5 4 -8 32 -8 62 0 33 -4 54 -11 54 -20 0 -24 -57
-8 -111 14 -47 14 -53 0 -67 -14 -14 -17 -12 -31 21 -22 54 -19 132 7 179 l23
40 -34 28 c-57 48 -125 47 -178 -2 -13 -12 -26 -19 -29 -15 -4 3 -21 -5 -39
-18 -17 -14 -41 -25 -52 -25 -23 0 -48 25 -56 58 -6 26 1 29 17 6 7 -8 30 -18
51 -20 32 -4 48 0 81 21 22 15 46 37 53 48 12 18 9 24 -28 55 -54 44 -71 79
-71 142 0 56 15 93 52 127 46 43 124 56 178 28z m-188 -478 c-5 -60 21 -92 77
-92 45 0 49 -4 24 -27 -60 -53 -132 -15 -133 70 0 21 25 92 32 92 2 0 2 -19 0
-43z m296 -217 c9 -15 10 -26 2 -40 -13 -24 -23 -25 -40 -5 -10 12 -10 21 -2
40 14 30 23 31 40 5z"/>
<path d="M2077 3155 c-77 -27 -113 -88 -97 -162 10 -42 55 -89 95 -99 71 -18
138 29 119 84 -6 17 -18 28 -32 30 -26 4 -25 25 2 30 24 5 46 -16 46 -44 0
-15 6 -24 15 -24 18 0 19 23 4 53 -16 29 -28 37 -61 37 -54 0 -83 -66 -31 -72
31 -3 42 -30 23 -53 -14 -17 -82 -20 -111 -5 -47 26 -63 110 -28 154 44 57
100 68 196 40 34 -10 77 -14 108 -12 l53 4 5 -38 c3 -21 26 -73 51 -115 50
-83 57 -123 31 -173 -20 -39 -53 -60 -93 -60 -65 0 -112 44 -112 104 0 47 56
60 67 16 7 -26 39 -26 53 -1 26 50 -8 105 -62 99 -17 -2 -33 -9 -36 -17 -3
-10 3 -12 26 -6 24 5 33 2 45 -16 9 -12 13 -28 9 -37 -5 -13 -8 -12 -20 6 -15
22 -55 29 -79 14 -34 -22 -32 -104 4 -144 21 -24 73 -48 104 -48 36 0 90 32
110 64 31 51 26 131 -13 192 -53 84 -70 131 -63 175 7 41 -3 51 -25 24 -21
-26 -72 -27 -157 -6 -95 24 -96 24 -146 6z"/>
<path d="M1437 3098 c4 -48 1 -60 -37 -121 -54 -89 -64 -118 -56 -172 17 -113
152 -158 230 -76 31 32 45 96 27 128 -16 32 -59 38 -85 14 -28 -26 -36 -26
-36 -2 0 26 25 44 55 39 33 -7 43 10 13 21 -58 21 -110 -37 -81 -92 17 -34 36
-34 51 -1 9 18 19 24 34 22 48 -7 38 -96 -15 -128 -50 -31 -93 -26 -134 15
-34 34 -35 38 -31 93 4 46 13 70 45 120 23 34 44 80 48 102 l7 40 39 -6 c26
-4 64 0 105 11 149 40 253 -18 224 -125 -13 -50 -51 -80 -101 -80 -66 0 -95
59 -34 70 39 7 43 32 9 59 -33 26 -45 26 -78 0 -17 -14 -26 -30 -26 -50 0 -39
14 -37 25 3 10 33 32 45 63 33 13 -5 9 -10 -17 -26 -27 -16 -32 -24 -29 -52 2
-26 10 -36 41 -51 33 -16 45 -17 76 -8 56 17 93 62 98 119 5 62 -22 107 -80
133 -51 24 -88 25 -153 5 -62 -19 -143 -19 -168 0 -30 23 -33 19 -29 -37z"/>
<path d="M1830 2611 c0 -6 9 -15 20 -21 18 -10 20 -21 20 -115 0 -96 -2 -104
-21 -110 -36 -12 -15 -27 39 -29 37 -1 52 2 52 12 0 7 -7 15 -15 18 -10 4 -15
20 -15 50 l0 44 45 0 c25 0 45 -4 45 -10 0 -5 5 -10 10 -10 6 0 10 19 10 43
-1 37 -2 40 -14 25 -9 -12 -27 -18 -55 -18 l-42 0 3 48 3 47 50 -3 c32 -2 54
-8 63 -19 16 -22 35 -4 30 28 -3 23 -6 24 -115 27 -71 2 -113 -1 -113 -7z"/>
<path d="M2435 2602 c-16 -11 -36 -26 -43 -34 -53 -65 -15 -188 58 -188 34 0
50 17 50 52 0 20 4 26 15 22 25 -10 19 -59 -10 -72 -28 -13 -34 -32 -10 -32
22 0 65 45 65 68 0 28 -31 61 -60 64 -22 3 -25 0 -23 -29 6 -70 -70 -58 -83
13 -9 49 15 96 59 117 43 21 85 14 122 -20 38 -36 55 -82 55 -155 0 -39 8 -79
18 -103 l18 -40 -40 -26 c-23 -14 -59 -49 -81 -77 -49 -64 -109 -97 -161 -87
-98 18 -125 144 -42 195 38 23 56 22 72 -2 8 -13 5 -22 -13 -41 l-22 -25 22
-16 c30 -21 41 -20 73 5 29 23 34 62 11 93 -19 25 -31 13 -18 -16 14 -31 -1
-68 -27 -68 -20 0 -20 1 -6 22 21 30 20 44 -4 68 -24 24 -60 26 -100 5 -39
-20 -60 -63 -60 -120 0 -85 78 -139 176 -120 29 5 55 25 118 90 70 72 88 85
124 91 47 7 51 13 22 31 -33 21 -50 69 -59 163 -7 74 -13 95 -35 125 -49 64
-122 83 -181 47z"/>
<path d="M1305 2570 c-47 -30 -74 -86 -81 -171 -8 -97 -20 -136 -50 -156 -31
-20 -31 -33 1 -33 42 0 79 -25 139 -94 80 -91 148 -115 223 -79 66 31 93 116
58 183 -28 55 -115 79 -148 42 -21 -23 -21 -41 -1 -70 13 -19 13 -22 0 -22
-17 0 -46 26 -46 41 0 6 5 19 11 31 14 27 1 38 -17 14 -32 -45 -5 -106 47
-106 39 0 56 16 41 37 -20 30 -24 42 -18 58 15 41 109 -8 121 -64 8 -38 -16
-95 -49 -116 -20 -13 -40 -16 -78 -13 -50 5 -55 9 -127 86 -42 44 -86 83 -99
87 -17 5 -21 11 -16 23 26 61 33 94 34 147 0 36 7 74 18 95 20 40 74 80 109
80 89 0 145 -119 83 -175 -30 -27 -55 -16 -55 25 0 33 -2 35 -30 33 -37 -3
-57 -28 -53 -67 4 -36 52 -76 70 -58 8 8 5 14 -15 23 -31 14 -44 44 -27 64 15
18 31 19 29 3 -4 -31 3 -48 22 -58 52 -28 109 29 109 109 0 37 -6 49 -39 82
-34 35 -44 39 -87 39 -31 0 -60 -7 -79 -20z"/>
<path d="M1717 2062 c-15 -9 -37 -37 -49 -60 -18 -38 -19 -49 -9 -83 18 -61
63 -104 138 -134 85 -34 117 -57 133 -95 13 -32 30 -40 30 -14 0 30 64 80 136
108 103 39 144 88 144 172 0 41 -5 51 -39 85 -35 35 -44 39 -89 39 -43 0 -57
-5 -87 -31 -59 -52 -43 -127 25 -117 34 5 42 -15 13 -30 -21 -11 -45 -5 -56
14 -11 18 -27 18 -27 0 0 -20 39 -46 67 -46 30 0 63 34 63 64 0 33 -16 41 -46
25 -21 -11 -27 -10 -40 3 -22 22 -10 55 29 79 40 24 74 24 113 0 44 -27 60
-71 45 -123 -16 -53 -48 -81 -131 -114 -38 -14 -83 -40 -100 -55 l-32 -30 -33
30 c-18 15 -61 39 -96 52 -68 26 -125 74 -135 116 -11 44 8 95 45 120 19 13
45 23 58 23 61 0 115 -59 88 -96 -11 -16 -16 -17 -40 -6 -34 16 -48 5 -43 -34
6 -56 91 -71 122 -22 17 28 0 31 -33 7 -30 -22 -31 -22 -51 -4 -29 26 -25 32
17 27 69 -8 86 57 29 114 -29 29 -40 34 -82 34 -29 0 -61 -8 -77 -18z"/>
<path d="M2318 863 l3 -258 74 0 75 0 0 258 0 257 -77 0 -78 0 3 -257z"/>
<path d="M660 838 l0 -233 75 0 75 0 0 83 0 82 76 0 75 0 -3 48 -3 47 -72 3
-73 3 0 99 0 100 -75 0 -75 0 0 -232z"/>
<path d="M840 1025 l0 -45 40 0 c38 0 40 -2 40 -30 l0 -30 80 0 80 0 0 75 0
75 -120 0 -120 0 0 -45z"/>
<path d="M2777 838 l2 -233 63 2 c35 1 69 2 76 2 7 1 12 14 12 31 0 25 4 30
25 30 23 0 25 4 25 45 0 41 -2 45 -25 45 l-25 0 0 155 0 155 -77 0 -78 0 2
-232z"/>
<path d="M2628 896 l-116 -138 17 -42 18 -41 101 -3 102 -3 0 46 0 45 -41 0
-40 0 41 49 41 48 -3 89 -3 89 -117 -139z"/>
<path d="M1133 935 l-43 -44 0 -99 0 -99 48 -45 c44 -42 52 -45 97 -43 l50 1
3 42 c3 37 1 42 -17 42 -20 0 -21 6 -21 100 0 93 1 100 20 100 17 0 20 7 20
45 l0 45 -57 -1 c-55 0 -60 -2 -100 -44z"/>
<path d="M1310 936 c0 -35 4 -45 20 -49 18 -5 20 -14 20 -97 0 -83 -2 -92 -20
-97 -16 -4 -20 -14 -20 -47 l0 -41 52 3 c47 3 58 9 101 50 l47 46 0 91 0 91
-48 47 c-45 44 -51 47 -100 47 l-52 0 0 -44z"/>
<path d="M1617 932 l-47 -48 0 -90 0 -90 48 -47 c45 -44 53 -48 100 -50 l52
-2 0 41 c0 33 -4 43 -20 47 -18 5 -20 14 -20 97 0 83 2 92 20 97 16 4 20 14
20 49 l0 44 -53 0 c-50 0 -55 -3 -100 -48z"/>
<path d="M1800 935 c0 -33 4 -45 15 -45 12 0 15 -18 15 -100 0 -82 -3 -100
-15 -100 -11 0 -15 -11 -15 -40 l0 -40 53 0 c49 0 56 3 97 45 l44 45 4 89 4
90 -47 50 c-46 49 -50 51 -101 51 l-54 0 0 -45z"/>
<path d="M2102 937 l-42 -43 0 -99 0 -100 38 -42 c34 -39 41 -42 92 -45 70 -3
100 13 100 52 0 28 -3 30 -35 30 l-35 0 0 100 0 100 35 0 c35 0 35 0 35 45 l0
45 -73 0 c-73 0 -73 0 -115 -43z"/>
<path d="M3030 837 l0 -143 44 -43 c36 -35 51 -43 86 -45 53 -3 90 23 90 64 0
25 -4 29 -32 32 l-33 3 -3 138 -3 137 -74 0 -75 0 0 -143z"/>
<path d="M3280 793 l0 -188 75 0 75 0 0 188 0 187 -75 0 -75 0 0 -187z"/>
</g>
</svg>
