<?xml version="1.0" standalone="no"?>
<!DOCTYPE svg PUBLIC "-//W3C//DTD SVG 20010904//EN"
 "http://www.w3.org/TR/2001/REC-SVG-20010904/DTD/svg10.dtd">
<svg version="1.0" xmlns="http://www.w3.org/2000/svg"
 width="1024.000000pt" height="1024.000000pt" viewBox="0 0 1024.000000 1024.000000"
 preserveAspectRatio="xMidYMid meet">

<g transform="translate(0.000000,1024.000000) scale(0.100000,-0.100000)"
fill="#000000" stroke="none">
<path d="M2 7788 c1 -1349 3 -2426 5 -2393 30 586 187 1241 430 1795 338 769
895 1476 1568 1991 569 436 1196 737 1888 908 294 73 671 130 952 144 33 2
-1044 4 -2392 5 l-2453 2 2 -2452z"/>
<path d="M5395 10233 c766 -40 1574 -276 2233 -650 359 -204 710 -460 981
-718 313 -297 570 -602 793 -941 449 -680 732 -1487 812 -2309 9 -88 17 -187
19 -220 2 -33 4 1044 5 2393 l2 2452 -2452 -2 c-1349 -1 -2426 -3 -2393 -5z"/>
<path d="M5067 9068 c-55 -20 -134 -222 -125 -318 7 -67 40 -128 113 -210 125
-139 149 -240 100 -412 -32 -114 -30 -147 7 -167 25 -14 29 -14 55 5 32 24 60
68 66 104 2 14 2 19 0 12 -3 -7 -9 -9 -15 -6 -6 4 -8 2 -4 -4 11 -18 -24 -78
-57 -97 -30 -18 -31 -18 -49 5 -23 28 -23 30 7 142 51 191 21 303 -117 440
-114 113 -122 269 -21 448 12 22 31 38 51 45 18 5 32 13 32 17 0 10 -7 9 -43
-4z"/>
<path d="M5133 9053 c22 -25 21 -39 -2 -110 -25 -75 -33 -121 -22 -128 5 -3
11 14 13 38 3 23 13 72 24 110 19 69 15 95 -17 105 -10 4 -9 0 4 -15z"/>
<path d="M5107 8758 c3 -18 10 -41 15 -51 5 -10 6 -26 3 -37 -3 -10 -1 -21 4
-25 7 -4 9 1 5 12 -3 10 12 -2 35 -27 22 -25 39 -50 36 -57 -2 -7 2 -10 9 -7
16 6 56 -56 89 -139 31 -77 34 -139 12 -219 -26 -97 -28 -107 -12 -73 73 156
35 324 -108 483 -41 46 -75 111 -75 144 0 16 -4 28 -10 28 -5 0 -7 -14 -3 -32z"/>
<path d="M4661 8703 c-21 -9 -59 -53 -82 -97 -17 -31 -20 -53 -17 -105 3 -55
10 -76 42 -128 21 -35 42 -63 46 -63 4 0 18 -23 30 -52 24 -57 24 -121 -1
-230 -10 -46 -11 -60 -1 -70 10 -10 11 -6 7 17 -4 17 1 49 9 74 32 87 17 204
-34 262 -88 104 -111 199 -70 291 22 50 42 72 55 60 5 -4 5 -1 1 6 -9 15 34
33 63 25 31 -8 35 -42 11 -98 -38 -87 -32 -116 51 -230 56 -78 73 -122 73
-195 1 -113 -57 -220 -119 -220 -15 0 -24 -4 -20 -10 24 -39 101 32 134 125
39 111 18 204 -73 326 -55 74 -66 117 -42 179 10 25 20 58 23 73 9 48 -36 80
-86 60z"/>
<path d="M5020 8620 c6 -11 13 -20 16 -20 2 0 0 9 -6 20 -6 11 -13 20 -16 20
-2 0 0 -9 6 -20z"/>
<path d="M5160 8589 c0 -5 5 -7 10 -4 6 3 10 8 10 11 0 2 -4 4 -10 4 -5 0 -10
-5 -10 -11z"/>
<path d="M5104 8549 c-3 -6 -2 -15 3 -20 5 -5 9 -1 9 11 0 23 -2 24 -12 9z"/>
<path d="M4648 8523 c7 -3 16 -2 19 1 4 3 -2 6 -13 5 -11 0 -14 -3 -6 -6z"/>
<path d="M5170 8431 c0 -6 4 -13 10 -16 6 -3 7 1 4 9 -7 18 -14 21 -14 7z"/>
<path d="M4626 8387 c3 -10 9 -15 12 -12 3 3 0 11 -7 18 -10 9 -11 8 -5 -6z"/>
<path d="M5170 8080 c0 -5 5 -10 11 -10 5 0 7 5 4 10 -3 6 -8 10 -11 10 -2 0
-4 -4 -4 -10z"/>
<path d="M5225 8050 c-16 -7 -17 -9 -3 -9 9 -1 20 4 23 9 7 11 7 11 -20 0z"/>
<path d="M4942 7739 c-260 -22 -509 -102 -694 -225 -141 -94 -278 -252 -335
-388 -19 -46 -25 -50 -70 -62 -64 -16 -167 -56 -228 -87 -119 -60 -184 -133
-204 -225 -40 -193 135 -361 494 -474 72 -22 146 -51 166 -64 96 -65 336 -137
581 -176 124 -19 183 -22 438 -23 311 0 390 7 600 51 154 33 286 76 395 128
50 24 142 60 206 81 226 71 402 185 462 299 29 56 30 174 2 231 -49 101 -200
196 -397 252 -54 15 -98 31 -98 37 0 17 -64 150 -94 196 -40 61 -159 183 -225
233 -109 81 -288 155 -461 191 -83 17 -304 37 -384 35 -28 -1 -97 -6 -154 -10z
m173 -206 c-90 -95 -185 -264 -185 -331 0 -63 78 -95 132 -53 13 11 45 55 70
98 59 101 112 168 181 227 73 62 104 66 217 31 147 -47 278 -119 389 -214 105
-90 198 -275 208 -416 5 -69 4 -71 -30 -111 -24 -27 -55 -48 -92 -62 -306
-117 -1280 -135 -1725 -31 -113 26 -184 62 -215 107 -48 70 -26 211 53 346
118 201 392 365 702 420 120 21 134 23 238 25 l93 1 -36 -37z m-1252 -705 c10
-87 25 -124 73 -177 132 -147 518 -221 1155 -221 576 0 985 69 1121 189 50 43
88 125 95 201 l6 61 31 -6 c56 -12 193 -84 220 -116 18 -20 26 -42 26 -67 0
-30 -8 -44 -52 -87 -142 -137 -492 -241 -963 -286 -172 -17 -741 -17 -915 -1
-500 48 -885 159 -1019 296 -73 74 -61 133 41 194 45 27 148 70 169 72 3 0 9
-24 12 -52z"/>
<path d="M5062 7533 c-6 -2 -10 -9 -6 -14 8 -14 21 -11 28 6 6 15 1 17 -22 8z"/>
<path d="M5016 7505 c-3 -8 -1 -15 4 -15 6 0 10 7 10 15 0 8 -2 15 -4 15 -2 0
-6 -7 -10 -15z"/>
<path d="M5040 7489 c0 -5 5 -7 10 -4 6 3 10 8 10 11 0 2 -4 4 -10 4 -5 0 -10
-5 -10 -11z"/>
<path d="M4628 7453 c7 -3 16 -2 19 1 4 3 -2 6 -13 5 -11 0 -14 -3 -6 -6z"/>
<path d="M5760 7369 c0 -5 5 -7 10 -4 6 3 10 8 10 11 0 2 -4 4 -10 4 -5 0 -10
-5 -10 -11z"/>
<path d="M4685 7359 c-4 -6 -5 -12 -2 -15 2 -3 7 2 10 11 7 17 1 20 -8 4z"/>
<path d="M4651 7344 c0 -11 3 -14 6 -6 3 7 2 16 -1 19 -3 4 -6 -2 -5 -13z"/>
<path d="M5870 7300 c0 -5 5 -10 11 -10 5 0 7 5 4 10 -3 6 -8 10 -11 10 -2 0
-4 -4 -4 -10z"/>
<path d="M5925 7239 c-4 -6 -5 -12 -2 -15 2 -3 7 2 10 11 7 17 1 20 -8 4z"/>
<path d="M4705 7220 c-3 -5 -1 -10 4 -10 6 0 11 5 11 10 0 6 -2 10 -4 10 -3 0
-8 -4 -11 -10z"/>
<path d="M5693 7178 c-22 -29 -24 -41 -3 -20 12 13 20 25 17 28 -2 2 -9 -1
-14 -8z"/>
<path d="M4891 7164 c0 -11 3 -14 6 -6 3 7 2 16 -1 19 -3 4 -6 -2 -5 -13z"/>
<path d="M4911 7164 c0 -11 3 -14 6 -6 3 7 2 16 -1 19 -3 4 -6 -2 -5 -13z"/>
<path d="M5715 7160 c-3 -5 -1 -10 4 -10 6 0 11 5 11 10 0 6 -2 10 -4 10 -3 0
-8 -4 -11 -10z"/>
<path d="M4485 7130 c3 -5 8 -10 11 -10 2 0 4 5 4 10 0 6 -5 10 -11 10 -5 0
-7 -4 -4 -10z"/>
<path d="M4540 7130 c0 -5 10 -10 23 -10 18 0 19 2 7 10 -19 13 -30 13 -30 0z"/>
<path d="M5410 7130 c0 -5 5 -10 11 -10 5 0 7 5 4 10 -3 6 -8 10 -11 10 -2 0
-4 -4 -4 -10z"/>
<path d="M5795 7130 c3 -5 11 -10 16 -10 6 0 7 5 4 10 -3 6 -11 10 -16 10 -6
0 -7 -4 -4 -10z"/>
<path d="M5065 7120 c3 -5 8 -10 11 -10 2 0 4 5 4 10 0 6 -5 10 -11 10 -5 0
-7 -4 -4 -10z"/>
<path d="M5760 7094 c0 -8 5 -12 10 -9 6 4 8 11 5 16 -9 14 -15 11 -15 -7z"/>
<path d="M6046 7077 c3 -10 9 -15 12 -12 3 3 0 11 -7 18 -10 9 -11 8 -5 -6z"/>
<path d="M5790 7069 c0 -5 5 -7 10 -4 6 3 10 8 10 11 0 2 -4 4 -10 4 -5 0 -10
-5 -10 -11z"/>
<path d="M6017 7058 c-4 -12 -4 -24 -2 -27 3 -2 5 1 5 8 0 7 4 10 9 7 5 -4 7
3 4 14 -7 25 -9 25 -16 -2z"/>
<path d="M5070 7050 c0 -5 5 -10 11 -10 5 0 7 5 4 10 -3 6 -8 10 -11 10 -2 0
-4 -4 -4 -10z"/>
<path d="M4085 7030 c3 -5 8 -10 11 -10 2 0 4 5 4 10 0 6 -5 10 -11 10 -5 0
-7 -4 -4 -10z"/>
<path d="M4121 7024 c0 -11 3 -14 6 -6 3 7 2 16 -1 19 -3 4 -6 -2 -5 -13z"/>
<path d="M4056 6915 c-3 -9 -5 -29 -5 -43 1 -20 3 -17 9 13 8 43 7 57 -4 30z"/>
<path d="M4125 6910 c-4 -6 3 -10 14 -10 25 0 27 6 6 13 -8 4 -17 2 -20 -3z"/>
<path d="M4240 6890 c0 -5 5 -10 11 -10 5 0 7 5 4 10 -3 6 -8 10 -11 10 -2 0
-4 -4 -4 -10z"/>
<path d="M4420 6849 c0 -5 5 -7 10 -4 6 3 10 8 10 11 0 2 -4 4 -10 4 -5 0 -10
-5 -10 -11z"/>
<path d="M4248 6843 c6 -2 18 -2 25 0 6 3 1 5 -13 5 -14 0 -19 -2 -12 -5z"/>
<path d="M6086 6795 c-9 -26 -7 -32 5 -12 6 10 9 21 6 23 -2 3 -7 -2 -11 -11z"/>
<path d="M5040 6699 c0 -5 5 -7 10 -4 6 3 10 8 10 11 0 2 -4 4 -10 4 -5 0 -10
-5 -10 -11z"/>
<path d="M4268 6693 c6 -2 18 -2 25 0 6 3 1 5 -13 5 -14 0 -19 -2 -12 -5z"/>
<path d="M4710 6680 c0 -5 5 -10 11 -10 5 0 7 5 4 10 -3 6 -8 10 -11 10 -2 0
-4 -4 -4 -10z"/>
<path d="M5788 6673 c7 -3 16 -2 19 1 4 3 -2 6 -13 5 -11 0 -14 -3 -6 -6z"/>
<path d="M5508 6633 c7 -3 16 -2 19 1 4 3 -2 6 -13 5 -11 0 -14 -3 -6 -6z"/>
<path d="M2705 7428 c-36 -32 -44 -79 -45 -258 0 -85 -5 -302 -11 -481 -14
-390 -11 -408 67 -581 31 -68 100 -220 153 -339 97 -215 145 -293 223 -365 36
-34 561 -441 667 -518 111 -81 124 -114 129 -331 3 -135 7 -174 20 -187 14
-17 45 -18 386 -18 305 1 374 3 390 15 18 13 18 29 13 312 -4 245 -9 315 -26
393 -46 220 -117 357 -265 509 -107 110 -222 186 -446 294 -102 49 -215 109
-252 134 -43 28 -130 110 -240 225 -191 199 -231 228 -324 228 -42 0 -54 -4
-76 -27 -54 -58 -49 -111 19 -211 47 -69 212 -276 437 -551 69 -85 126 -158
126 -163 0 -33 -138 40 -204 107 -50 52 -356 431 -439 543 -48 66 -77 140 -77
199 0 65 60 155 133 198 16 9 15 25 -13 215 -53 364 -78 497 -104 549 -57 112
-175 165 -241 109z"/>
<path d="M7395 7438 c-35 -19 -86 -72 -105 -109 -23 -44 -51 -182 -90 -446
-40 -263 -46 -333 -31 -333 25 0 100 -82 115 -127 30 -87 16 -152 -56 -257
-56 -83 -405 -511 -458 -563 -43 -41 -120 -85 -175 -99 l-29 -7 34 45 c19 25
130 162 247 304 333 406 353 435 353 506 0 33 -20 71 -50 96 -21 18 -126 10
-170 -13 -19 -10 -107 -92 -195 -183 -237 -244 -278 -277 -437 -346 -403 -177
-591 -329 -714 -581 -85 -175 -104 -298 -104 -675 0 -266 1 -280 19 -290 13
-6 152 -10 383 -10 298 0 368 3 384 14 17 13 19 31 24 193 7 254 -16 221 343
494 414 316 472 364 523 427 47 60 60 85 145 272 48 108 68 151 166 360 65
136 68 151 68 315 0 303 -17 921 -27 952 -13 46 -52 73 -102 73 -22 0 -50 -6
-61 -12z"/>
<path d="M2 2453 l-2 -2453 2453 2 c1348 1 2425 3 2392 5 -509 26 -1089 151
-1575 340 -888 344 -1660 928 -2230 1684 -430 570 -721 1180 -889 1862 -72
291 -130 673 -144 952 -2 33 -4 -1044 -5 -2392z"/>
<path d="M10230 4835 c0 -98 -28 -347 -61 -555 -65 -399 -198 -847 -366 -1230
-338 -769 -895 -1476 -1568 -1991 -569 -436 -1196 -737 -1888 -908 -294 -73
-671 -130 -952 -144 -33 -2 1044 -4 2393 -5 l2452 -2 0 2450 c0 1348 -2 2450
-5 2450 -3 0 -5 -29 -5 -65z"/>
<path d="M2700 3969 c-176 -30 -334 -176 -394 -367 -40 -129 -49 -212 -44
-423 5 -173 8 -204 32 -282 54 -180 129 -278 267 -352 164 -87 367 -87 540 0
130 66 221 186 271 360 21 74 23 98 22 315 0 210 -2 244 -22 315 -65 236 -211
387 -414 429 -84 17 -172 19 -258 5z m226 -268 c111 -51 164 -209 164 -489 -1
-331 -74 -471 -249 -472 -197 -1 -271 132 -271 489 0 208 34 357 98 425 60 64
174 85 258 47z"/>
<path d="M4020 3974 c-260 -50 -418 -240 -460 -551 -25 -184 -3 -458 48 -593
46 -124 152 -245 257 -294 211 -99 480 -64 638 82 148 138 206 339 194 671 -7
183 -27 276 -86 396 -92 185 -250 283 -466 290 -55 2 -111 1 -125 -1z m232
-290 c95 -66 132 -200 132 -474 0 -252 -30 -367 -111 -426 -89 -65 -230 -58
-306 14 -76 72 -101 177 -101 427 0 168 2 199 22 270 50 173 111 227 254 222
56 -2 74 -8 110 -33z"/>
<path d="M1380 3940 c-20 -20 -20 -33 -20 -713 0 -660 1 -695 18 -710 15 -14
41 -17 138 -17 80 0 124 4 132 12 9 9 12 82 12 269 0 142 3 264 6 273 5 14 32
16 195 16 237 0 229 -5 229 140 0 144 7 140 -219 140 -99 0 -186 3 -195 6 -14
5 -16 28 -16 149 0 79 3 150 6 159 5 14 36 16 238 16 293 0 276 -9 276 140 0
101 -2 110 -22 124 -19 14 -74 16 -390 16 -355 0 -369 -1 -388 -20z"/>
<path d="M4881 3941 c-21 -21 -21 -22 -21 -711 0 -689 0 -690 21 -711 21 -21
26 -21 288 -16 228 4 278 8 350 26 315 80 459 336 438 776 -17 347 -158 555
-424 627 -68 18 -114 21 -354 25 -271 5 -277 5 -298 -16z m531 -262 c108 -23
174 -87 211 -204 19 -62 22 -92 22 -250 0 -197 -11 -254 -60 -330 -53 -81
-130 -114 -280 -122 -86 -5 -103 -3 -118 11 -15 16 -17 55 -17 442 0 274 4
432 10 445 9 16 22 19 95 19 46 0 108 -5 137 -11z"/>
<path d="M6727 3938 c-13 -13 -62 -83 -108 -156 -46 -73 -109 -172 -141 -220
-52 -81 -207 -324 -305 -479 -43 -67 -43 -68 -43 -163 0 -52 5 -102 10 -110 8
-13 59 -16 327 -20 l318 -5 3 -124 c1 -71 7 -130 14 -138 14 -18 248 -19 266
-1 8 8 12 51 12 128 0 63 4 120 8 126 4 7 43 13 90 15 59 3 86 8 92 19 5 8 10
61 10 117 0 122 -1 123 -113 123 -59 0 -76 3 -81 16 -3 9 -6 209 -6 444 0 414
-1 430 -19 440 -11 5 -84 10 -165 10 -136 0 -146 -1 -169 -22z m50 -875 c-10
-10 -51 -13 -175 -11 l-162 3 172 257 173 257 3 -246 c2 -195 0 -250 -11 -260z"/>
<path d="M7478 3947 c-17 -13 -18 -50 -18 -518 0 -547 4 -588 55 -689 82 -161
282 -264 515 -263 286 0 487 133 548 362 13 45 16 154 19 568 5 615 23 553
-157 553 -107 0 -122 -2 -140 -20 -19 -19 -20 -33 -20 -507 0 -269 -5 -505 -9
-527 -22 -94 -120 -161 -231 -160 -85 0 -142 18 -186 56 -72 63 -68 36 -74
610 -4 405 -8 520 -18 530 -19 19 -261 23 -284 5z"/>
<path d="M1710 1911 c0 -201 1 -210 20 -216 34 -11 40 3 40 95 0 106 4 118 43
135 16 7 25 15 20 18 -5 3 -23 -6 -41 -19 -31 -25 -32 -27 -32 -110 0 -60 -4
-84 -12 -84 -9 0 -8 -3 2 -10 18 -11 8 -23 -14 -14 -15 6 -16 27 -14 203 3
175 5 196 20 199 15 3 18 -7 21 -70 l3 -73 0 75 c-1 74 -1 75 -28 78 l-28 3 0
-210z"/>
<path d="M5267 2113 c-4 -3 -7 -98 -7 -209 0 -197 1 -203 21 -209 12 -4 25 -3
29 2 11 10 18 203 8 203 -5 0 -8 -42 -8 -94 0 -94 -5 -111 -28 -97 -9 6 -12
57 -10 202 3 173 5 194 20 197 15 3 18 -8 21 -80 l3 -83 2 88 c2 85 1 87 -21
87 -13 0 -27 -3 -30 -7z"/>
<path d="M6868 2104 c-2 -9 -1 -105 2 -213 5 -188 6 -196 25 -196 18 0 20 7
21 85 l0 85 -3 -77 c-3 -53 -8 -78 -18 -81 -11 -5 -14 29 -14 199 -1 174 1
204 14 204 12 0 15 -15 15 -72 0 -40 4 -68 8 -62 4 5 6 39 4 77 -3 63 -5 67
-27 67 -14 0 -25 -7 -27 -16z"/>
<path d="M8572 2038 l2 -83 3 78 c3 69 6 77 23 77 19 0 20 -8 20 -199 0 -166
-2 -200 -15 -205 -8 -3 -19 2 -24 12 -10 16 -10 16 -11 0 0 -22 15 -31 40 -23
19 6 20 15 20 216 l0 209 -30 0 -30 0 2 -82z"/>
<path d="M1441 2099 c-13 -5 -21 -12 -18 -15 3 -3 14 -1 25 5 56 30 202 -13
152 -44 -6 -4 -17 -1 -25 5 -22 18 -104 14 -126 -6 -21 -19 -26 -69 -8 -79 6
-4 8 -13 5 -21 -3 -8 0 -11 9 -8 15 6 150 -55 141 -63 -3 -4 3 -12 14 -20 24
-17 25 -40 4 -91 -12 -31 -23 -41 -53 -51 -21 -6 -54 -11 -74 -11 -43 0 -108
35 -101 55 3 8 12 11 20 8 8 -3 12 -9 9 -13 -8 -12 17 -17 45 -9 17 5 19 7 7
8 -10 1 -31 8 -46 16 -26 13 -30 13 -45 -4 -13 -14 -14 -20 -4 -28 55 -44 153
-56 209 -27 32 16 59 66 59 106 0 37 -40 76 -120 116 -63 32 -76 43 -78 66 -2
15 2 34 9 42 14 17 88 19 124 2 22 -10 28 -9 36 3 15 24 6 42 -31 55 -42 15
-106 16 -139 3z"/>
<path d="M2594 2095 c-10 -24 4 -45 28 -44 l23 2 -22 4 c-15 3 -23 12 -23 24
0 24 25 25 40 2 11 -17 11 -17 6 0 -3 10 -6 21 -6 23 0 12 -41 2 -46 -11z"/>
<path d="M3654 2096 c-17 -7 -45 -33 -64 -56 -30 -38 -34 -50 -38 -119 -5 -94
16 -154 71 -195 62 -48 160 -47 217 1 29 24 30 26 14 44 -17 19 -18 19 -51 -1
-41 -24 -110 -26 -142 -4 -71 50 -66 223 8 267 39 23 86 21 133 -5 33 -19 41
-20 49 -8 16 26 5 44 -41 68 -50 25 -109 28 -156 8z m145 -12 c39 -15 57 -37
45 -55 -3 -6 -20 -1 -38 11 -67 41 -162 13 -191 -57 -28 -68 -9 -202 31 -217
9 -3 12 -10 9 -16 -4 -6 1 -7 11 -3 10 4 15 2 11 -3 -10 -17 106 1 135 20 26
17 28 17 35 1 11 -30 -60 -65 -133 -65 -51 0 -119 51 -139 104 -41 106 3 252
85 285 38 15 95 13 139 -5z"/>
<path d="M4890 2080 c0 -16 3 -30 8 -31 4 0 32 -1 62 -2 l55 -2 5 -175 5 -175
25 0 25 0 0 180 1 180 -6 -175 c-4 -146 -7 -175 -20 -175 -13 0 -16 29 -21
175 -3 96 -6 176 -7 178 -1 1 -29 2 -63 2 -52 0 -60 2 -57 18 3 15 20 17 151
20 144 2 147 2 147 -19 0 -19 -5 -21 -55 -17 -30 1 -55 0 -55 -4 0 -11 43 -20
81 -16 30 3 34 6 34 33 l0 30 -157 3 -158 3 0 -31z"/>
<path d="M7372 1903 l3 -208 28 -3 c15 -2 27 1 27 7 0 6 -10 10 -22 8 l-23 -2
-3 198 -2 198 110 -3 c60 -2 110 0 110 5 0 4 -52 7 -115 7 l-115 0 2 -207z"/>
<path d="M1387 2051 c-21 -36 -21 -54 -1 -96 12 -26 33 -43 87 -70 40 -20 78
-41 85 -47 9 -8 11 -7 7 3 -3 8 -38 30 -77 49 -55 27 -77 44 -92 72 -20 35
-20 37 -3 73 22 45 18 55 -6 16z"/>
<path d="M7588 2069 c-2 -6 -35 -13 -73 -16 -96 -7 -95 -13 3 -13 75 0 82 2
82 20 0 22 -6 26 -12 9z"/>
<path d="M7423 1980 c0 -36 2 -50 4 -32 2 17 2 47 0 65 -2 17 -4 3 -4 -33z"/>
<path d="M1813 1978 c-12 -6 -24 -17 -27 -25 -4 -9 5 -7 25 8 33 23 86 22 118
-3 9 -7 6 -3 -7 10 -25 24 -71 28 -109 10z"/>
<path d="M2083 1978 c-13 -6 -23 -15 -23 -19 0 -4 12 -1 28 7 15 7 49 14 75
14 40 0 54 -5 76 -28 23 -23 29 -39 35 -100 4 -40 4 -81 1 -92 -4 -12 -2 -20
6 -20 8 0 10 22 5 85 -6 94 -13 114 -52 144 -30 23 -112 28 -151 9z"/>
<path d="M2377 1983 c-11 -11 -8 -281 3 -288 6 -3 19 -3 30 0 18 6 20 15 20
88 0 51 5 92 14 109 12 23 12 27 0 32 -8 3 -12 1 -9 -4 3 -5 1 -19 -6 -31 -6
-12 -11 -57 -11 -100 0 -55 -3 -79 -13 -83 -7 -2 -16 -2 -19 1 -3 4 -6 64 -6
135 0 122 1 128 20 128 18 0 19 -3 10 -22 -11 -22 -10 -22 4 -4 12 14 13 23 5
33 -12 14 -32 17 -42 6z"/>
<path d="M2460 1964 l-25 -27 32 23 c32 23 53 21 53 -7 0 -11 -7 -14 -23 -11
-15 3 -24 0 -24 -9 0 -15 3 -15 35 -7 18 5 22 13 20 33 -4 36 -37 39 -68 5z"/>
<path d="M2594 1977 c-2 -7 -3 -73 -2 -147 3 -123 5 -135 22 -138 10 -2 22 2
27 10 13 20 11 225 -2 233 -7 5 -10 -28 -8 -111 3 -105 1 -119 -14 -122 -15
-3 -17 10 -17 132 0 130 6 156 31 140 8 -4 7 -9 -2 -15 -11 -7 -10 -9 5 -9 12
0 16 5 12 16 -3 9 -6 18 -6 20 0 10 -41 2 -46 -9z"/>
<path d="M2733 1983 c-10 -3 -13 -42 -13 -143 0 -116 2 -139 16 -144 38 -15
41 -8 46 94 6 118 18 140 79 140 21 0 41 -4 44 -10 3 -5 11 -10 18 -10 6 0 2
7 -10 15 -42 29 -111 18 -132 -23 -5 -9 -9 -55 -10 -102 -2 -83 -9 -108 -29
-96 -5 3 -9 63 -10 133 0 128 7 155 35 131 9 -7 13 -7 13 0 0 8 -26 25 -33 21
-1 0 -8 -3 -14 -6z"/>
<path d="M2815 1964 l-30 -26 38 21 c21 12 47 21 59 21 26 0 75 -29 84 -49 13
-31 17 -221 5 -221 -6 0 -14 0 -18 0 -5 0 -11 44 -14 97 l-5 98 -2 -106 c-2
-115 -5 -110 51 -100 13 2 8 190 -7 226 -27 64 -109 84 -161 39z"/>
<path d="M3123 1980 c-26 -11 -59 -61 -69 -103 -9 -42 14 -111 47 -143 38 -36
108 -40 141 -6 15 15 18 22 8 22 -9 0 -7 7 8 20 17 16 22 32 22 71 0 44 -4 55
-30 79 -26 24 -34 27 -71 20 -58 -11 -85 -61 -68 -125 12 -43 43 -65 91 -65
45 0 49 -14 9 -28 -60 -21 -122 20 -140 93 -28 111 65 198 156 145 l38 -22
-28 26 c-29 27 -72 33 -114 16z m127 -70 c14 -14 20 -33 20 -65 0 -57 -25 -85
-75 -85 -70 0 -102 80 -59 148 19 30 85 31 114 2z"/>
<path d="M3274 1975 c-4 -9 -4 -19 0 -22 3 -4 6 1 6 11 0 11 6 16 18 14 15 -3
17 -20 20 -157 2 -139 1 -156 -18 -186 -33 -53 -114 -70 -185 -41 -39 16 -40
19 -25 47 6 11 7 19 1 19 -10 0 -21 -24 -21 -45 0 -18 72 -45 121 -45 52 0 92
21 118 64 20 32 21 46 19 193 -3 155 -3 158 -26 161 -13 2 -25 -3 -28 -13z"/>
<path d="M3957 1974 c-15 -8 -25 -19 -22 -24 3 -5 15 0 25 10 15 15 34 20 71
20 43 0 55 -5 81 -30 20 -21 28 -37 25 -50 -3 -11 -1 -18 4 -14 5 3 9 -15 9
-40 0 -30 -4 -46 -12 -46 -9 0 -10 -3 -2 -8 6 -4 11 -24 12 -44 1 -32 -2 -38
-18 -38 -11 0 -20 5 -20 12 0 6 -2 9 -5 6 -12 -12 9 -38 31 -38 24 0 24 1 24
101 0 115 -15 161 -61 184 -36 19 -106 18 -142 -1z"/>
<path d="M4235 1978 c-3 -8 -4 -75 -3 -149 l3 -134 28 -3 27 -3 0 85 c0 93 11
128 44 144 17 9 18 11 4 11 -32 2 -53 -47 -58 -138 -3 -55 -9 -86 -17 -89 -19
-6 -29 28 -12 39 10 6 10 9 2 9 -16 0 -17 216 -2 226 5 3 17 0 26 -8 14 -11
16 -11 11 2 -6 20 -47 25 -53 8z"/>
<path d="M4333 1973 c-13 -8 -23 -20 -23 -25 0 -5 10 0 22 12 28 26 58 26 58
0 0 -11 -4 -20 -10 -20 -5 0 -10 -4 -10 -10 0 -5 7 -7 16 -3 9 3 14 15 12 32
-4 31 -32 38 -65 14z"/>
<path d="M4497 1969 c-43 -33 -70 -94 -64 -146 5 -49 41 -107 75 -122 26 -13
128 -15 135 -3 3 4 -20 6 -51 5 -71 -2 -106 16 -132 67 -25 49 -25 79 0 133
37 77 114 99 178 51 36 -28 67 -87 58 -111 -5 -11 -25 -14 -101 -11 -52 2 -95
-1 -95 -5 0 -4 46 -6 103 -5 96 3 102 4 105 25 4 26 -28 91 -57 117 -33 30
-118 33 -154 5z"/>
<path d="M5353 1965 l-28 -26 38 22 c27 15 46 19 71 15 37 -7 62 -29 51 -45
-3 -6 0 -8 8 -5 10 4 16 -6 20 -33 9 -54 8 -181 -1 -187 -19 -12 -31 14 -35
74 -3 62 -4 62 -3 -10 1 -73 2 -75 26 -75 25 0 25 2 28 87 4 115 -9 163 -51
188 -45 28 -90 26 -124 -5z"/>
<path d="M5612 1982 c-9 -6 -12 -43 -10 -148 l3 -139 28 -3 27 -3 0 83 c0 90
22 146 57 150 10 0 25 1 33 2 10 1 15 11 15 31 0 41 -34 46 -69 10 -36 -36
-33 -42 5 -11 37 31 59 33 59 6 0 -14 -7 -20 -21 -20 -12 0 -36 -15 -55 -34
-33 -33 -34 -36 -34 -120 0 -67 -3 -86 -14 -86 -22 0 -25 21 -25 142 0 125 7
151 35 127 15 -12 17 -12 12 1 -6 18 -28 23 -46 12z"/>
<path d="M5900 1982 c-57 -26 -100 -87 -100 -142 0 -41 32 -99 69 -124 97 -68
225 3 225 125 0 55 -20 90 -74 127 -32 22 -88 28 -120 14z m133 -35 c68 -52
69 -155 1 -214 -45 -40 -97 -44 -155 -11 -59 33 -81 112 -50 186 15 35 18 37
41 22 13 -9 13 -11 1 -19 -8 -5 -16 -32 -19 -65 -4 -51 -2 -57 27 -87 33 -32
30 -32 129 -17 6 1 10 3 7 6 -2 2 2 11 10 19 23 22 29 60 17 106 -10 40 -10
40 -5 -15 5 -53 4 -59 -25 -87 -18 -19 -41 -31 -57 -31 -33 0 -81 24 -89 45
-12 34 -6 93 13 116 19 24 19 24 -2 35 -20 11 -20 12 9 28 40 23 105 15 147
-17z"/>
<path d="M5934 1939 c-27 -6 -27 -7 9 -8 21 0 48 -6 60 -13 19 -10 20 -9 10 4
-7 8 -11 17 -9 19 6 6 -37 5 -70 -2z"/>
<path d="M6160 1883 c0 -90 3 -113 20 -141 34 -56 115 -72 154 -31 l21 22 -27
-16 c-41 -26 -83 -21 -120 12 l-33 29 -3 111 c-4 107 -3 111 17 111 20 0 21
-5 21 -100 0 -94 2 -103 25 -125 31 -32 75 -32 109 -2 24 21 26 28 27 120 1
54 -1 101 -5 104 -3 4 -6 -42 -6 -100 l0 -106 -30 -16 c-40 -21 -63 -19 -88 8
-20 21 -22 34 -22 125 l0 102 -30 0 -30 0 0 -107z"/>
<path d="M6393 1979 c15 -9 17 -27 17 -139 0 -125 -9 -163 -31 -129 -7 11 -9
10 -9 -4 0 -13 6 -18 23 -15 22 3 22 6 25 151 l3 147 -23 0 c-21 -1 -21 -2 -5
-11z"/>
<path d="M6556 1971 c-43 -29 -66 -70 -66 -121 1 -52 14 -80 54 -111 39 -31
126 -33 153 -5 17 18 17 19 -2 11 -11 -5 -30 -9 -42 -9 -11 -1 -19 -4 -16 -8
7 -13 -25 -9 -62 6 -41 18 -75 69 -75 114 0 94 92 158 171 118 18 -9 34 -14
37 -12 9 9 -58 36 -90 36 -18 0 -46 -9 -62 -19z"/>
<path d="M6733 1983 c-7 -2 -13 -9 -13 -14 0 -6 8 -5 20 1 11 6 25 8 30 5 6
-3 10 -1 10 4 0 11 -25 13 -47 4z"/>
<path d="M6963 1974 c-13 -9 -23 -21 -23 -26 0 -5 12 0 26 11 15 12 39 21 55
21 29 0 93 -46 84 -60 -3 -5 -1 -11 5 -15 6 -3 10 -49 10 -107 0 -87 -2 -99
-16 -94 -9 3 -18 6 -20 6 -2 0 -4 43 -4 95 0 84 -2 96 -22 115 -22 20 -91 29
-101 13 -3 -5 14 -6 38 -5 62 5 75 -18 75 -129 0 -91 12 -118 46 -105 14 5 16
22 13 121 -4 108 -6 116 -30 141 -34 33 -103 42 -136 18z"/>
<path d="M7717 1959 c-35 -23 -50 -41 -58 -69 -13 -42 -5 -115 14 -141 25 -33
81 -59 128 -59 38 0 52 6 87 35 32 28 42 45 47 79 9 59 -1 99 -33 134 -56 62
-114 69 -185 21z m141 4 c59 -39 81 -89 67 -159 -7 -40 -61 -98 -83 -89 -7 3
-10 0 -7 -5 4 -6 -11 -10 -37 -10 -50 0 -113 33 -104 55 3 9 0 12 -8 9 -20 -8
-31 85 -16 129 16 41 82 87 128 87 18 0 45 -8 60 -17z"/>
<path d="M7725 1923 c-40 -40 -41 -117 -3 -159 13 -14 15 -23 8 -26 -7 -2 12
-4 42 -5 51 -1 51 0 14 7 -22 4 -48 18 -58 30 -23 28 -24 107 -2 139 14 20 23
22 70 19 62 -4 59 8 -4 14 -35 3 -48 -1 -67 -19z"/>
<path d="M7870 1901 c15 -29 15 -92 0 -120 -6 -12 -7 -21 -2 -21 6 0 16 20 24
45 9 25 11 45 7 45 -5 0 -9 11 -9 24 0 13 -7 30 -17 37 -15 13 -15 12 -3 -10z"/>
<path d="M7836 1752 c-3 -4 4 -9 15 -9 23 -2 25 3 4 10 -8 4 -16 3 -19 -1z"/>
<path d="M8070 1968 c-19 -13 -35 -30 -38 -38 -3 -9 5 -5 18 8 55 57 143 53
203 -9 27 -28 34 -110 13 -154 -18 -36 -55 -68 -85 -70 -9 0 -22 -4 -28 -8
-18 -11 -74 16 -108 52 -28 30 -30 38 -29 103 0 53 -2 65 -9 47 -5 -13 -7 -48
-4 -77 11 -145 195 -187 266 -61 22 39 27 101 11 143 -5 14 -28 39 -51 56 -53
38 -110 41 -159 8z"/>
<path d="M8401 1961 c-37 -34 -51 -69 -51 -123 0 -53 26 -106 64 -129 42 -26
107 -25 131 1 19 21 19 21 -11 5 -49 -25 -90 -19 -132 19 -36 33 -37 37 -37
103 0 52 5 74 20 94 39 51 97 62 148 28 l32 -21 -30 26 c-42 36 -93 35 -134
-3z"/>
<path d="M6773 1912 c-2 -33 0 -43 7 -32 11 18 13 80 3 80 -5 0 -9 -21 -10
-48z"/>
<path d="M2116 1940 c-16 -5 -33 -7 -38 -4 -4 3 -8 0 -8 -6 0 -12 52 -5 80 11
19 11 4 10 -34 -1z"/>
<path d="M2170 1940 c0 -4 11 -11 24 -14 14 -3 28 -17 34 -33 6 -16 11 -21 11
-13 1 23 -25 57 -49 63 -11 3 -20 2 -20 -3z"/>
<path d="M3975 1935 c-39 -17 -21 -18 25 0 19 7 28 14 20 14 -8 0 -28 -6 -45
-14z"/>
<path d="M4060 1940 c-23 -7 -24 -8 -3 -9 12 -1 27 -9 32 -18 6 -10 11 -13 11
-6 0 6 -5 15 -10 18 -6 4 -8 11 -5 16 4 5 5 9 3 8 -2 -1 -14 -5 -28 -9z"/>
<path d="M4528 1934 c-27 -14 -54 -51 -45 -61 3 -2 8 5 12 16 8 28 41 44 85
43 28 0 31 1 15 8 -28 12 -36 11 -67 -6z"/>
<path d="M5651 1934 c0 -11 3 -14 6 -6 3 7 2 16 -1 19 -3 4 -6 -2 -5 -13z"/>
<path d="M6603 1943 c-59 -11 -84 -108 -40 -158 16 -20 34 -27 69 -30 42 -3
51 0 76 25 43 43 42 96 -3 140 -19 18 -37 31 -40 28 -3 -3 6 -13 20 -22 36
-24 48 -59 35 -106 -13 -49 -59 -69 -115 -50 -41 13 -55 35 -55 82 1 41 16 62
60 81 35 16 33 18 -7 10z"/>
<path d="M8139 1946 c-2 -2 -20 -6 -39 -8 -19 -3 -35 -9 -35 -14 0 -5 -4 -15
-9 -22 -13 -21 -10 -95 5 -122 7 -14 13 -27 12 -30 -1 -3 7 -6 17 -7 15 -1 14
2 -6 22 -33 34 -34 112 -1 142 31 28 65 34 103 18 44 -18 62 -77 40 -128 -16
-40 -27 -48 -76 -58 -34 -7 -34 -7 -5 -8 66 -2 114 68 95 139 -6 22 -21 46
-33 54 -26 16 -62 28 -68 22z"/>
<path d="M8474 1943 c-45 -6 -67 -34 -72 -96 -3 -42 0 -57 18 -79 12 -16 28
-28 36 -28 8 0 14 -4 14 -8 0 -18 66 2 87 27 18 20 23 38 23 83 0 53 -2 59
-33 82 -19 15 -36 25 -38 24 -2 0 -18 -3 -35 -5z m76 -35 c28 -31 28 -106 -2
-143 -18 -24 -26 -27 -61 -22 -58 8 -72 27 -72 98 0 48 4 63 19 75 31 22 92
18 116 -8z"/>
<path d="M1872 1929 c35 -13 40 -29 39 -129 -1 -92 6 -114 35 -108 17 3 19 14
20 113 0 104 0 105 -3 15 -4 -108 -8 -129 -25 -112 -6 6 -11 51 -12 101 -2 98
-18 132 -60 130 -18 0 -17 -2 6 -10z"/>
<path d="M5344 1924 c-18 -15 -18 -15 3 -5 27 13 73 14 93 1 8 -5 20 -24 27
-42 l13 -33 -5 33 c-2 18 -11 40 -19 48 -19 19 -87 18 -112 -2z"/>
<path d="M4625 1920 c3 -5 8 -10 11 -10 2 0 4 5 4 10 0 6 -5 10 -11 10 -5 0
-7 -4 -4 -10z"/>
<path d="M6901 1914 c0 -11 3 -14 6 -6 3 7 2 16 -1 19 -3 4 -6 -2 -5 -13z"/>
<path d="M6923 1905 c-3 -9 -3 -18 -1 -21 3 -3 8 4 11 16 6 23 -1 27 -10 5z"/>
<path d="M7498 1913 c53 -3 63 -7 60 -21 -2 -13 -18 -18 -63 -23 l-60 -6 65 1
c63 1 65 2 68 29 l3 27 -68 -2 -68 -2 63 -3z"/>
<path d="M4641 1884 c0 -11 3 -14 6 -6 3 7 2 16 -1 19 -3 4 -6 -2 -5 -13z"/>
<path d="M4100 1875 c0 -12 -13 -15 -55 -15 -60 0 -125 -21 -125 -41 0 -7 8
-5 21 7 15 14 40 20 95 22 65 4 74 7 74 23 0 10 -2 19 -5 19 -3 0 -5 -7 -5
-15z"/>
<path d="M2089 1849 c-34 -13 -66 -79 -38 -79 6 0 9 6 6 13 -3 7 3 24 13 37
13 18 31 24 81 30 62 7 63 7 14 8 -27 0 -62 -4 -76 -9z"/>
<path d="M4518 1853 c23 -2 61 -2 85 0 23 2 4 4 -43 4 -47 0 -66 -2 -42 -4z"/>
<path d="M6771 1844 c0 -11 3 -14 6 -6 3 7 2 16 -1 19 -3 4 -6 -2 -5 -13z"/>
<path d="M8382 1840 c0 -14 2 -19 5 -12 2 6 2 18 0 25 -3 6 -5 1 -5 -13z"/>
<path d="M8601 1844 c0 -11 3 -14 6 -6 3 7 2 16 -1 19 -3 4 -6 -2 -5 -13z"/>
<path d="M7423 1780 c0 -36 2 -50 4 -32 2 17 2 47 0 65 -2 17 -4 3 -4 -33z"/>
<path d="M2108 1819 c-27 -15 -23 -63 6 -82 37 -25 97 -10 114 29 18 39 14 42
-8 7 -16 -27 -26 -33 -54 -33 -49 0 -66 9 -66 35 0 29 13 38 70 46 l45 6 -45
1 c-25 1 -53 -3 -62 -9z"/>
<path d="M3988 1823 c-10 -2 -18 -9 -18 -14 0 -6 6 -7 13 -2 6 4 35 10 62 14
l50 6 -45 0 c-25 1 -53 -1 -62 -4z"/>
<path d="M1571 1797 c-1 -22 -8 -31 -31 -40 -33 -13 -41 -28 -11 -20 30 8 53
39 48 65 -4 20 -4 19 -6 -5z"/>
<path d="M4483 1788 c1 -14 4 -25 6 -22 2 2 15 -6 29 -16 28 -22 78 -26 117
-8 20 9 28 9 38 -1 9 -9 9 -14 -3 -22 -12 -9 -12 -10 -1 -7 19 5 23 19 11 38
-7 12 -14 12 -43 2 -63 -23 -117 -8 -142 39 l-13 24 1 -27z"/>
<path d="M6770 1745 c0 -68 -30 -152 -50 -140 -6 4 -10 2 -10 -4 0 -31 -164
-18 -177 15 -7 20 15 44 25 27 4 -6 25 -14 47 -17 l40 -6 -35 11 c-19 6 -42
17 -51 25 -15 14 -19 13 -33 -8 -23 -33 -21 -37 31 -60 36 -16 59 -19 101 -15
86 9 116 48 127 165 6 51 4 72 -4 72 -7 0 -11 -23 -11 -65z"/>
<path d="M3911 1777 c-1 -19 9 -38 28 -58 36 -36 93 -39 131 -8 l25 20 -32
-15 c-68 -34 -128 -11 -143 54 -7 33 -8 33 -9 7z"/>
<path d="M3960 1773 c0 -12 9 -27 19 -33 23 -12 88 -13 95 -2 3 5 -16 8 -42 8
-39 -1 -48 3 -59 24 -12 24 -13 24 -13 3z"/>
<path d="M2051 1736 c20 -43 96 -61 135 -31 10 8 14 15 7 15 -6 0 -15 -4 -18
-10 -17 -28 -115 2 -115 36 0 8 -4 14 -10 14 -6 0 -5 -9 1 -24z"/>
<path d="M6732 1740 c0 -14 2 -19 5 -12 2 6 2 18 0 25 -3 6 -5 1 -5 -13z"/>
<path d="M2266 1714 c-4 -9 -13 -14 -21 -10 -8 3 -15 1 -15 -4 0 -18 39 -10
50 10 6 11 7 20 1 20 -5 0 -12 -7 -15 -16z"/>
<path d="M3267 1694 c-3 -20 -14 -42 -24 -50 -22 -16 -86 -18 -116 -3 -21 10
-21 10 -3 -5 11 -9 37 -16 57 -16 21 0 43 -2 51 -3 7 -2 9 -2 5 1 -4 2 4 15
18 27 16 16 25 35 25 55 0 41 -6 38 -13 -6z"/>
<path d="M6721 1694 c-1 -22 -24 -47 -55 -58 -10 -3 -17 -9 -14 -12 3 -2 17 0
31 7 28 13 52 50 44 71 -3 8 -6 5 -6 -8z"/>
</g>
</svg>
